<?xml version="1.0" encoding="utf-8"?>
<!-- Generator: Adobe Illustrator 24.0.1, SVG Export Plug-In . SVG Version: 6.00 Build 0)  -->
<svg version="1.1" id="f8de8b25-3d53-474b-a5b1-b2a4ad6ddbb8"
	 xmlns="http://www.w3.org/2000/svg" xmlns:xlink="http://www.w3.org/1999/xlink" x="0px" y="0px" viewBox="0 0 970.2 753.6"
	 style="enable-background:new 0 0 970.2 753.6;" xml:space="preserve">
<style type="text/css">
	.st0{fill:#F2F2F2;}
	.st1{fill:none;stroke:#3F3D56;stroke-width:2;stroke-miterlimit:10;}
	.st2{fill:#3F3D56;}
	.st3{fill:#4E999B;}
	.st4{fill:#2F2E41;}
	.st5{opacity:0.1;enable-background:new    ;}
	.st6{fill:#9F616A;}
	.st7{fill:#A0616A;}
</style>
<title>Mobile app</title>
<path class="st0" d="M718.8,430.5L526.1,189.8c-8.7,8-19.5,13.4-31.2,15.7c-36.3,7.1-71.7-17.6-79.1-55.3
	c-5.2-26.6,4.9-52.6,24.1-68.1L374.3,0L0,319.9l344.5,430.5L718.8,430.5z"/>
<line class="st1" x1="82.2" y1="752.6" x2="970.2" y2="752.6"/>
<circle class="st1" cx="619.4" cy="56.9" r="14.8"/>
<circle class="st1" cx="814.4" cy="485.9" r="14.8"/>
<circle class="st1" cx="170.7" cy="93.9" r="14.8"/>
<circle class="st0" cx="479.4" cy="139.7" r="54.3"/>
<path class="st2" d="M156.9,109.4h240.6c23.9,0,44.6,16.6,49.9,39.9L569,688.5c5,22.3-9,44.4-31.2,49.4c-2.3,0.5-4.7,0.8-7.1,1
	l-247.4,12.2c-27.4,1.3-51.5-17.8-56.4-44.8l-69-381.3l-5.1,1.5l-13.2-72.3l5.3-1.3l-19.3-106.4c-3.1-17.1,8.3-33.5,25.4-36.6
	C153,109.5,154.9,109.4,156.9,109.4z"/>
<path class="st3" d="M365.8,121h28.1c16.6,0,31,11.6,34.5,27.8l116.7,534.9c2.6,11.8-4.9,23.5-16.7,26.1c-1.1,0.2-2.1,0.4-3.2,0.5
	l-246.6,16.2c-14.4,0.9-27.2-9.1-29.8-23.3l-99.6-552.8c-2.4-13.5,6.5-26.4,20-28.9c1.5-0.3,2.9-0.4,4.4-0.4h26.6
	c5.3,0,9.9,3.6,11.3,8.7l0,0c1.2,4.5,5.3,7.7,10,7.7h126.5C357.4,137.3,365.1,130.2,365.8,121L365.8,121z"/>
<rect x="189.2" y="259.3" class="st4" width="255.1" height="1.3"/>
<rect x="196.8" y="300.1" class="st4" width="257.6" height="1.3"/>
<rect x="215.6" y="442.4" transform="matrix(0.9998 -2.117171e-02 2.117171e-02 0.9998 -9.3019 7.4918)" class="st4" width="267.1" height="1.3"/>
<rect x="218.7" y="479.8" transform="matrix(0.9997 -2.308848e-02 2.308848e-02 0.9997 -10.9981 8.3205)" class="st4" width="272.2" height="1.3"/>
<path class="st5" d="M324,583.8c0,33,26.7,59.7,59.7,59.7c33,0,59.7-26.7,59.7-59.7c0-0.7,0-1.5,0-2.2
	c-1.2-32.9-28.9-58.7-61.9-57.4C349.4,525.4,324,551.7,324,583.8L324,583.8z"/>
<path class="st5" d="M329.7,607.1c0,0.7,0,1.5,0,2.2c14.1,29.8,49.7,42.6,79.5,28.5c20.9-9.9,34.2-30.9,34.2-54c0-0.7,0-1.5,0-2.2
	c-14.1-29.8-49.7-42.6-79.5-28.5C343,562.9,329.7,584,329.7,607.1L329.7,607.1z"/>
<circle class="st3" cx="693" cy="234.9" r="36.8"/>
<polygon class="st6" points="732.7,696.1 739.7,726.1 722.7,726.1 715.7,692.1 "/>
<polygon class="st6" points="650.7,696.1 650.7,724.1 633.7,726.1 633.7,696.1 "/>
<path class="st6" d="M737.7,378.1c0,0-2,43-4,46s-20,46-20,46l-9-28c0,0,14-23,12-36s-0.7-29-0.7-29L737.7,378.1z"/>
<circle class="st6" cx="680.7" cy="246.1" r="28"/>
<path class="st6" d="M703.7,249.1c0,0-1,40,6,46s-40,1-40,1s10-28,2-34S703.7,249.1,703.7,249.1z"/>
<path class="st3" d="M666.7,294.1c0,0,6-11,14-10s34,3,35,5s4,9,6,11s17,5,18,17s-36,85-36,85s5,17,4,21s5,16,4,21s15,35,7,74v63
	c0,0,27,109,19,117s-35,3-40,0s-26-154-26-154l-10-51l-1,112c0,0,2,94-5,97s-34,4-36-2c-1.6-4.7-9.2-129.2-12.5-183.8
	c-1.1-18.8,0.3-37.7,4.4-56.2c4.2-18.9,10.2-41.1,17.1-50.1c13-17,21-71,21-71l-17-31c0,0,10-10,16-10S666.7,294.1,666.7,294.1z"/>
<path class="st3" d="M733.7,310.1l5.3,3.6c0,0,3.7,64.4,0.7,68.4s-23.9,2-25.4-1.5S733.7,310.1,733.7,310.1z"/>
<path class="st6" d="M644.5,368.6c2.9,20.3,5.5,38.4-9.5,54.7c-15,16.6-32,31.2-50.5,43.8c-1.8,4.9-28.8,40.6-30.2,26.3
	s7.9-25.4,21.2-37.5s31.7-38.2,42.2-52.5s6.1-23.3,5.8-35.3S640.4,368.8,644.5,368.6z"/>
<path class="st3" d="M633.7,707.9c0,0-1,11.2-4,14.2s-11,7-10,18s7.5,11.5,7.5,11.5l-0.5-2.5l3,1l0.5,1.5h28c0,0,0.5-10.5-0.5-15.5
	s-1-29-4-28s-11,2-13,6S632.7,716.7,633.7,707.9z"/>
<path class="st3" d="M735.7,707.9c0,0,1,11.2,4,14.2s11,7,10,18s-7.5,11.5-7.5,11.5l0.5-2.5l-3,1l-0.5,1.5h-28
	c0,0-0.5-10.5,0.5-15.5s1-29,4-28s11,2,13,6S736.7,716.7,735.7,707.9z"/>
<path class="st3" d="M646.7,305.1l-14,3c0,0,0,22-4,31s-11,30-8,31s31,15,33,7S660.7,305.1,646.7,305.1z"/>
<circle class="st3" cx="732.8" cy="186.5" r="36.8"/>
<path class="st3" d="M764.6,216.9c-16.5,11.9-39.5,8.2-51.4-8.3c-2.4-3.4-4.3-7.1-5.4-11.1c2.5,20.2,20.9,34.5,41.1,31.9
	c20.2-2.5,34.5-20.9,31.9-41.1c-0.3-2-0.7-4-1.2-5.9C781.2,195.9,775.5,209.1,764.6,216.9z"/>
<circle class="st3" cx="702.8" cy="241" r="27"/>
<ellipse class="st3" cx="680.1" cy="230.9" rx="23.9" ry="18.7"/>
<ellipse class="st7" cx="673.7" cy="250.1" rx="4.5" ry="8"/>
<polygon class="st3" points="365.3,598.5 363.4,610.8 388.1,614.7 412.2,571.6 400.7,567.1 381.4,601.5 "/>
</svg>
