<svg xmlns="http://www.w3.org/2000/svg" viewBox="0 0 725.16 551.8"><defs><style>.cls-1,.cls-8{fill:#ffd200;}.cls-1{opacity:0.2;}.cls-1,.cls-10,.cls-11,.cls-12,.cls-13,.cls-16,.cls-17,.cls-3,.cls-7,.cls-9{isolation:isolate;}.cls-2,.cls-7{fill:#e6e6e6;}.cls-3{opacity:0.08;}.cls-4{fill:#f4a28c;}.cls-5{fill:#3d3358;}.cls-6{fill:#24285b;}.cls-7,.cls-9{opacity:0.45;}.cls-13,.cls-15,.cls-16,.cls-9{fill:#fff;}.cls-10,.cls-11,.cls-14{fill:#a5a5a5;}.cls-10{opacity:0.39;}.cls-11{opacity:0.18;}.cls-12{fill:#ce8172;opacity:0.31;}.cls-13{opacity:0.46;}.cls-16{opacity:0.21;}.cls-17{fill:none;stroke:#a5a5a5;stroke-linecap:round;stroke-linejoin:round;stroke-width:2px;stroke-dasharray:2 10;opacity:0.32;}</style></defs><title>sectionOneFichier 3</title><g id="Calque_2" data-name="Calque 2"><g id="Calque_1-2" data-name="Calque 1"><circle class="cls-1" cx="42.23" cy="87.3" r="42.23"/><circle class="cls-1" cx="682.93" cy="42.23" r="42.23"/><rect class="cls-2" x="154.17" y="104.65" width="407.37" height="284.29"/><path class="cls-3" d="M506.26,140s-6.82-.63-6.65,14.14,12,25.4,12,25.4l-3,26.78s-67.18-15.41-76.13,30.53-4.64,79.34-34.25,63.85-43.09-79.17-43.09-79.17-19.07-2.25-12.75,19.77,5.8,104.41,52.16,108.25,76.91,10.85,71.64,39.47h99.65V286.14L527.86,176.57l-4.15-28.66Z"/><path class="cls-3" d="M173.47,233.73s13.74-4.21,15.51,16.5,17.74,31.91,22.48,53.8,36.86-1.47,51.84,30c0,0,25.14-23.52,44-9.31s-19,15.5-19,15.5L271.71,382l49.69.65,16-55.21,13.51,2.11L337.94,389l-144.45-2.44L173.4,295.08,162.7,261.7Z"/><path class="cls-4" d="M237.8,396.37l43.05-70.91s16.08,0,18.76-6.51c1.66-4.07-8.33-5.12-16.06-5.35a18.77,18.77,0,0,0-14,5.71l-53,54.3S206.17,406.09,237.8,396.37Z"/><path class="cls-3" d="M237.8,396.37l43.05-70.91s16.08,0,18.76-6.51c1.66-4.07-8.33-5.12-16.06-5.35a18.77,18.77,0,0,0-14,5.71l-53,54.3S206.17,406.09,237.8,396.37Z"/><path class="cls-5" d="M297.06,428.68s15.51,14.62-4.6,14S279.78,426.48,297.06,428.68Z"/><path class="cls-6" d="M173.91,262.71S204,285.17,189.8,293.85s-25.12-33.25-25.12-33.25Z"/><ellipse class="cls-7" cx="342.15" cy="518.84" rx="305.7" ry="32.96"/><path class="cls-4" d="M173.76,243.53a61,61,0,0,1,1.58,16.21,4.9,4.9,0,0,1-5.4,4.36h0a10.85,10.85,0,0,1-9.59-6.85l-4.22-8.05a8.74,8.74,0,0,1,2.47-9.84C163.54,234.62,172.69,237.65,173.76,243.53Z"/><polygon class="cls-4" points="156.99 254.2 160 286.14 177.49 283.21 168.28 261.15 156.99 254.2"/><path class="cls-4" d="M164.68,253.27s-.61-3.71-3.37-3-1.9,6.09,2,6Z"/><path class="cls-4" d="M174.88,249.62l3.24,3.33a1.56,1.56,0,0,1,0,2.21,1.53,1.53,0,0,1-.6.36l-3.6,1.25Z"/><path class="cls-6" d="M239.21,402.52S299,387.35,306.83,413.8s-83.65,23.83-83.65,23.83l-20.82-16.48Z"/><path class="cls-5" d="M177.49,283.21s34.84,3.56,59.11,31.3c14.44,16.47,9,30.19,2.11,38.62a27.77,27.77,0,0,0-4.55,25.94l7.2,22.49s-38.45,24.8-62.73,22.21S77.63,287,177.49,283.21Z"/><path class="cls-3" d="M130.16,311.41a60.42,60.42,0,0,0-2.1,26c2.31,12.77,14.41,97.61,94.25,74.7l19.07-10.53-20.23-17.12-38.68-40.56-16.86-32.54Z"/><path class="cls-2" d="M157.43,368.72c-17.11-51.85-93.56-43.36-100.09,10.86-6.77,56,.88,133.24,91,143.29C291.64,538.8,314.25,474.07,294,440s-120.81-16.18-135.83-68.78C157.94,370.33,157.71,369.53,157.43,368.72Z"/><path class="cls-4" d="M275.56,398s20,4.85,21.43-7.88l-21.83-1.16Z"/><path class="cls-4" d="M154.17,312.88a15.18,15.18,0,0,1,23.18-13.15c6.84,4.53,13.61,13.87,17.67,32.18,7.95,35.82,27.78,51.23,80.54,55.86V398S156.29,428.3,154.17,312.88Z"/><path class="cls-6" d="M171.78,245.87h0a7.12,7.12,0,0,0,3.82-9.32,7.31,7.31,0,0,0-2.13-2.82,15.69,15.69,0,0,0-3.52-2.1c-8.43-3.48-28.28-1-27,17.91s-30.31,62-1.75,73.75,52.32-3.77,52.32-17.64-27.08-17.19-28.87-29.33c-.72-4.95-1.41-10.2-2-14.75A15.09,15.09,0,0,1,171.78,245.87Z"/><rect class="cls-8" x="262.81" y="382.02" width="61.85" height="8.89"/><polygon class="cls-8" points="316.53 386.49 336.5 320.85 342.24 322.15 324.66 390.91 316.53 386.49"/><path class="cls-9" d="M107.09,449.43c-10.07-9.21-25.88.89-21.52,13.83,6.18,18.26,20.36,36.22,51.53,41.53,70,11.9,63.21-14,58.68-25.29C192.1,470.31,145.72,484.66,107.09,449.43Z"/><rect class="cls-10" x="329.38" y="217" width="51.21" height="8.87"/><rect class="cls-11" x="329.38" y="236.75" width="51.21" height="8.87"/><rect class="cls-10" x="419.49" y="217" width="51.21" height="8.87"/><rect class="cls-11" x="419.49" y="236.75" width="51.21" height="8.87"/><path class="cls-5" d="M498.66,211.29a22.46,22.46,0,0,0-31.7-2.13,21.64,21.64,0,0,0-1.87,1.84,88.61,88.61,0,0,0-22.95,58.24c-1.5,50-36.79,45-73.48-36.77l-17.74,9.69s48.59,161.57,122.83,69.94C519,256.35,511.45,226.28,498.66,211.29Z"/><path class="cls-3" d="M491,204.21a15.84,15.84,0,0,0-20,1,88,88,0,0,0-28.81,64.06c-1.5,50-36.79,45-73.48-36.77l-17.74,9.69s48.59,161.57,122.83,69.94C527.72,245.54,506.56,215.59,491,204.21Z"/><path class="cls-4" d="M513,148.94s-1.54,11.65,0,19.53a5.87,5.87,0,0,0,6.93,4.59H520a13,13,0,0,0,10.54-9.36l4-10.11a10.54,10.54,0,0,0-4.21-11.49C524.22,137,513.55,141.77,513,148.94Z"/><polygon class="cls-4" points="533.97 155.41 538.34 193.72 517.05 194.63 522.43 166.39 533.97 155.41"/><path class="cls-6" d="M515.79,149.55a46,46,0,0,0,10.87-.36,9.83,9.83,0,0,0-.48,10.77,8,8,0,0,0,9.5,3.6l.49-15.11a12,12,0,0,0-5.61-10.93,42.07,42.07,0,0,0-4.93-2.7c-4.22-1.94-10.77.7-14.54-2.42a2.84,2.84,0,0,0-4.57,1.66c-.89,4.55-.38,11.82,5.73,14.61A10.83,10.83,0,0,0,515.79,149.55Z"/><path class="cls-4" d="M525,159.56s.29-4.53,3.69-4,3,7-1.65,7.43Z"/><path class="cls-4" d="M512.4,156.34l-3.48,4.38a1.89,1.89,0,0,0,.32,2.66,1.75,1.75,0,0,0,.71.35l4.47,1Z"/><path class="cls-12" d="M521,172.52a14.1,14.1,0,0,0,7.08-3.79s-.63,7-8.66,13.63Z"/><path class="cls-5" d="M495.1,194.27s79.08-17.73,107.46-1.84S575.3,358,575.3,358L488,355.22S411.5,209.38,495.1,194.27Z"/><path class="cls-5" d="M512.75,498.42s-4.06,7.34-11.21,6.79-10.07,6-4,8.83,23.66-2.66,23.66-2.66l1.52-13Z"/><path class="cls-5" d="M576.73,496.8s2.89,7.86,10,8.43,9.06,7.5,2.68,9.38-23.06-6.37-23.06-6.37l.49-13Z"/><path class="cls-4" d="M364.93,234.51s1.1-18-10.53-22.59,0,28.33,0,28.33Z"/><path class="cls-3" d="M563.75,206.21s-25,16.21-12.26,53.17,14.75,63.49-15.22,54.22S508.46,263,508.46,263l-30.6,4.63-2.95,58.75,13,28.72,75.86-4.76,30.91-7.9,11.51-38.63-21.07-65.66Z"/><path class="cls-6" d="M487.91,355.13l22.34,143.29h14.6s-13.53-107.76,10.09-120.76S563.2,498.42,563.2,498.42l15.49-1.24-.17-147.74Z"/><path class="cls-5" d="M579.17,187.65s49.21-8.3,49.21,69.12S616.54,403.09,503,334l8.64-13.19s61.11,26.93,74.15,3.29S534.75,200.78,579.17,187.65Z"/><path class="cls-13" d="M579.17,187.65s49.21-8.3,49.21,69.12S616.54,403.09,503,334l8.64-13.19s61.11,26.93,74.15,3.29S534.75,200.78,579.17,187.65Z"/><rect class="cls-8" x="329.38" y="154.12" width="51.21" height="45.03"/><rect class="cls-13" x="349.3" y="142.85" width="12.37" height="25.14"/><rect class="cls-14" x="237.21" y="154.12" width="51.21" height="45.03"/><rect class="cls-13" x="257.1" y="142.85" width="12.37" height="25.14"/><rect class="cls-14" x="419.49" y="154.12" width="51.21" height="45.03"/><rect class="cls-8" x="454.78" y="260.79" width="42.95" height="64.29" transform="translate(-57.07 125.03) rotate(-14.12)"/><rect class="cls-13" x="439.4" y="142.85" width="12.37" height="25.14"/><path class="cls-4" d="M511.57,320.85s-20.5-16.23-23.72-3.82,18,12.5,18,12.5Z"/><rect class="cls-10" x="237.21" y="217" width="51.21" height="8.87"/><rect class="cls-11" x="237.21" y="236.75" width="51.21" height="8.87"/><path class="cls-8" d="M709.09,47.1a26.53,26.53,0,1,0-48.87,6.32,21.42,21.42,0,0,1,1.94,15.8l-.21.89,25.43,6.51.17-.65a21.53,21.53,0,0,1,9.69-12.92A26.54,26.54,0,0,0,709.09,47.1Z"/><path class="cls-15" d="M668,71.77a.91.91,0,0,1-.7-1l2.95-33.9a.93.93,0,0,1,1-.85h0a.9.9,0,0,1,.83.94.13.13,0,0,1,0,.06l-3,33.9a.91.91,0,0,1-1,.85h0Z"/><path class="cls-15" d="M681.42,75.21h-.15a.93.93,0,0,1-.46-1.22L694.5,42.84a.91.91,0,0,1,1.18-.5l.05,0a.92.92,0,0,1,.46,1.22l-13.7,31.14A1,1,0,0,1,681.42,75.21Z"/><rect class="cls-6" x="661.16" y="65.96" width="23.73" height="30.07" transform="translate(427.64 712.9) rotate(-75.64)"/><path class="cls-15" d="M684.37,47.54a4.41,4.41,0,0,1-2.74-2.89c-.28-.65-.63-1-1-1.07-.89-.15-2.24,1-2.74,1.58a.93.93,0,0,1-1.39-1.22c.23-.26,2.29-2.53,4.42-2.11a3.29,3.29,0,0,1,2.43,2.11c.33.75.86,1.7,1.62,1.81s1.85-.82,2.1-1.16a.94.94,0,0,1,1.29-.28.92.92,0,0,1,.27,1.28.86.86,0,0,1-.14.18,4.78,4.78,0,0,1-3.84,1.81Z"/><ellipse class="cls-16" cx="696.03" cy="28.73" rx="6.45" ry="8.24" transform="translate(246.63 561.01) rotate(-52.19)"/><path class="cls-8" d="M68.57,83.51A26.55,26.55,0,1,0,24.21,105a21.33,21.33,0,0,1,6.91,14.4v.9l26.2-1.87v-.66a21.42,21.42,0,0,1,5.12-15.32A26.51,26.51,0,0,0,68.57,83.51Z"/><path class="cls-15" d="M37.45,119.88a.89.89,0,0,1-1-.69l-8-33.13A.89.89,0,0,1,29.2,85h0a.93.93,0,0,1,1.11.68l7.88,33.1a.93.93,0,0,1-.69,1.12h0Z"/><path class="cls-15" d="M51.18,118.91H51a.93.93,0,0,1-.83-1L53.38,84a.91.91,0,0,1,1-.83h0a.94.94,0,0,1,.82,1L52,118.09A.91.91,0,0,1,51.18,118.91Z"/><rect class="cls-6" x="29.97" y="115.23" width="30.07" height="23.73" transform="translate(-8.78 3.46) rotate(-4.01)"/><path class="cls-15" d="M45.26,91.73a4.38,4.38,0,0,1-3.49-1.86c-.49-.52-.93-.78-1.31-.71-.89.14-1.81,1.66-2.11,2.38a.91.91,0,0,1-1.18.49h0a.9.9,0,0,1-.52-1.17v0c.15-.31,1.4-3.14,3.52-3.47a3.16,3.16,0,0,1,3,1.3c.56.63,1.36,1.35,2.1,1.22s1.5-1.37,1.67-1.79a.93.93,0,0,1,1.73.68h0a4.53,4.53,0,0,1-3.08,2.93Z"/><ellipse class="cls-16" cx="50.35" cy="70.17" rx="6.45" ry="8.24" transform="translate(-32.58 94.31) rotate(-70.57)"/><path class="cls-17" d="M575.61,168.73S673,221.41,667.32,99.88"/><path class="cls-17" d="M43.77,154.23S2,271.58,118.91,279"/></g></g></svg>