<svg xmlns="http://www.w3.org/2000/svg" viewBox="0 0 495.4 414.94"><defs><style>.cls-1{fill:#f4a28c;}.cls-2{fill:#716791;}.cls-3{fill:#24285b;}.cls-4{fill:#ce8172;opacity:0.31;}.cls-10,.cls-4,.cls-8,.cls-9{isolation:isolate;}.cls-5{fill:#3d3358;}.cls-6{fill:#ffd200;}.cls-7{fill:#fff;}.cls-8{opacity:0.16;}.cls-9{opacity:0.08;}.cls-10{fill:#4a4756;opacity:0.46;}.cls-11{fill:#c9c9c9;}.cls-12{fill:#e6e6e6;}</style></defs><title>sectionTwoFichier 5</title><g id="Calque_2" data-name="Calque 2"><g id="Calque_1-2" data-name="Calque 1"><path class="cls-1" d="M233.58,186.5s47.58,63.72,84.56,84.37,107.67-89.68,107.67-89.68l-13.57-10.05-77.47,58.93s-44.54-100.07-78.46-99S219,168.13,233.58,186.5Z"/><ellipse class="cls-2" cx="221.68" cy="386.67" rx="196.54" ry="28.26"/><path class="cls-1" d="M314.09,84.84l1.57,6.5A2.24,2.24,0,0,1,314,94.06a2.3,2.3,0,0,1-1,0L307.65,93Z"/><path class="cls-1" d="M318.16,76.67s-5.47,12.93-12,20.07a7.07,7.07,0,0,1-10,.44l0,0c-3.54-3.32-7.3-8.83-5.22-16.13L293,68.26A12.65,12.65,0,0,1,304.3,59C314,57.62,322,69,318.16,76.67Z"/><polygon class="cls-1" points="293.37 72.01 256.27 100.37 273.61 119.12 292.98 91.77 293.37 72.01"/><path class="cls-3" d="M289.9,70.43l-4.07,7.3a9.55,9.55,0,0,0,12,2.09,11.74,11.74,0,0,0,6.09-11.35s-.76,5.33,4.57,4.75,7.82.91,6.51,4,3.9,5.73,9.25,1-4.21-6.92.2-9.12,9.31-2.58,5.75-8.47-6.52,1.2-8.05-4.31.13-9.85-6.73-10.94-6,6.58-11.29,2.35-7.74-3.87-11.79,2.08c-2.65,3.87-4.6,6.71-3.21,8.92A11.38,11.38,0,0,1,289.9,70.43Z"/><path class="cls-1" d="M299.33,80.21s2.41-4.82-1.24-6.37-7.41,5.47-2.86,8.65Z"/><path class="cls-1" d="M228.76,289.86s44.5,18.81,62.58,75.48l-6,6.63s-22.64-37.24-74.48-66Z"/><path class="cls-1" d="M225.88,310.5s-48.61,58.84-97.36,24.56l2.55-7.92s51.37,17.17,71.82-44.94Z"/><path class="cls-4" d="M292.44,92.56a17.24,17.24,0,0,1-2.52-8.87s-8.56,5.37-3,16.68Z"/><path class="cls-5" d="M256.27,100.37l23.14,10.56a52.63,52.63,0,0,1,29.19,50.78c-.82,12.61-3.65,18.68-7.59,36.67-4.78,21.64-4.36,44.3-22.68,56.76-13.72,9.33-31.87,24.47-36,41.38L173,263.37S142.48,95.09,256.27,100.37Z"/><path class="cls-3" d="M173.11,263.37s-9.58,27.37,14.14,38.32,57.58,27.36,57.58,27.36l19.29-21.89A266.74,266.74,0,0,0,173.11,263.37Z"/><rect class="cls-6" x="52.16" y="157.02" width="273.77" height="126.04"/><polygon class="cls-7" points="274.81 220.04 197.2 181.19 197.2 202.25 115.75 202.25 115.75 236.95 197.2 236.95 197.2 258.9 274.81 220.04"/><path class="cls-8" d="M249.14,157S146,179.37,184.06,282.57l-49.43.42-11.8-77.05,6-57.48Z"/><path class="cls-1" d="M220.06,101.7S141.18,111.15,104.69,133s24,138.12,24,138.12l19.81-8.7-16.77-94.66s109,11.33,125-18.61S243.36,98.29,220.06,101.7Z"/><polygon class="cls-5" points="120.27 253.39 145.56 245.56 149.78 269.83 128.81 273.48 120.27 253.39"/><path class="cls-3" d="M190.44,285.47s-11.87,29.41-22.2,32.27l15.69,26.31s26.33-10.32,41.45-26.49C225.42,317.56,206,283.64,190.44,285.47Z"/><path class="cls-5" d="M291.4,365.36s6.58,3.76,11.86,0,10.63,0,7.29,4.95S291,379.43,291,379.43L285.32,372Z"/><path class="cls-5" d="M130.87,336s-7.29,1.83-8.48,8.27-7.59,7.48-8.68,1.55,7.69-20.07,7.69-20.07l9.24,1.27Z"/><path class="cls-1" d="M412.31,171.14s-1.13-20.78,3.06-22,6.17,8.85,6.17,8.85,4.93-17.75,14.12-15.55-9.85,38.79-9.85,38.79Z"/><path class="cls-1" d="M130.91,273.11s-1.57,23,8.81,22.34,16.42-12.39,16.42-12.39l-6.36-13.27Z"/><polygon class="cls-5" points="412.31 171.14 399.1 181.19 414.28 198.09 425.88 181.19 412.31 171.14"/><path class="cls-9" d="M345.53,221.94v46.54s-9.52,6-19.6,5V211.7l8.91,18.37Z"/><path class="cls-5" d="M291,63.62a59.69,59.69,0,0,1,27.2,13.05l-3.26,6.77s-7.68-8.87-25-13Z"/><polygon class="cls-10" points="146.18 55.48 85.41 25.05 85.41 41.03 0 41.03 0 72.2 85.41 72.2 85.41 85.9 146.18 55.48"/><polygon class="cls-2" points="495.4 313.98 446.79 289.66 446.79 302.45 378.5 302.45 378.5 327.36 446.79 327.36 446.79 338.32 495.4 313.98"/><circle class="cls-11" cx="221.68" cy="63.11" r="12.55"/><circle class="cls-12" cx="307.65" cy="5.8" r="5.8"/><circle class="cls-11" cx="378.5" cy="63.11" r="11.71"/><circle class="cls-12" cx="357.13" cy="145.12" r="5.8"/></g></g></svg>