<svg xmlns="http://www.w3.org/2000/svg" viewBox="0 0 25.44 32.93"><defs><style>.cls-1{fill:#3d3358;}</style></defs><title>buttonIconLeftFichier 4</title><g id="Calque_2" data-name="Calque 2"><g id="Calque_1-2" data-name="Calque 1"><path class="cls-1" d="M17.91,19.54c-.75,1-3.32.86-5.71-.25L4.53,15.74c-2.39-1.11-3.43-3.49-2.29-5.3s3.83-2,6-.49l7.13,5C17.5,16.52,18.66,18.56,17.91,19.54ZM9.08,32.76l-5.16-.83C1.31,31.51-.41,29.79.09,28.11S3,25.79,5.51,26.68l5.15,1.84c2.48.89,4.21,2.38,3.84,3.31S11.68,33.19,9.08,32.76ZM20.43,8.12,18,5.47c-1.77-1.95-2.18-4.28-.9-5.16S20.58.53,22,2.77L24,6c1.39,2.25,1.89,4.45,1.12,4.89S22.21,10.07,20.43,8.12Z"/></g></g></svg>