<svg xmlns="http://www.w3.org/2000/svg" viewBox="0 0 25.44 32.93"><defs><style>.cls-1{fill:#3d3358;}</style></defs><title>button_iconFichier 1</title><g id="Calque_2" data-name="Calque 2"><g id="Calque_1-2" data-name="Calque 1"><path class="cls-1" d="M10.1,15l7.12-5c2.16-1.53,4.85-1.31,6,.49s.11,4.19-2.29,5.3l-7.66,3.55c-2.4,1.11-5,1.22-5.72.25S7.94,16.52,10.1,15Zm.84,16.84c-.37-.93,1.36-2.42,3.85-3.31l5.14-1.84c2.49-.89,4.93-.24,5.43,1.43s-1.23,3.4-3.84,3.82l-5.16.83C13.76,33.19,11.32,32.77,10.94,31.83ZM.37,10.87C-.41,10.43.09,8.23,1.48,6l2-3.21C4.87.53,7.05-.58,8.33.31s.86,3.21-.91,5.16L5,8.12C3.24,10.07,1.15,11.31.37,10.87Z"/></g></g></svg>