<svg xmlns="http://www.w3.org/2000/svg" viewBox="0 0 227.6 45.77"><defs><style>.cls-1,.cls-2{fill:#3d3358;}.cls-2{font-size:34px;font-family:Gilroy-Heavy;font-weight:800;}.cls-3{letter-spacing:0.01em;}.cls-4{letter-spacing:-0.01em;}.cls-5{letter-spacing:-0.02em;}.cls-6{letter-spacing:-0.05em;}.cls-7{letter-spacing:0em;}</style></defs><title>logoFichier 6</title><g id="Calque_2" data-name="Calque 2"><g id="Calque_1-2" data-name="Calque 1"><path class="cls-1" d="M17.49,19.14c-.5,1.12-3,1.59-5.62,1.05L3.6,18.48C1,17.94-.53,15.85.17,13.84S3.44,11,5.88,12L14,15.3C16.41,16.3,18,18,17.49,19.14ZM11.89,34l-5.21.35c-2.63.18-4.71-1.1-4.6-2.84s2.34-2.93,5-2.63l5.43.62c2.62.3,4.64,1.37,4.49,2.36S14.53,33.85,11.89,34ZM17.35,7.45l-2.94-2c-2.17-1.5-3.1-3.68-2.05-4.83s3.42-.57,5.28,1.3l2.67,2.68c1.86,1.87,2.85,3.9,2.19,4.5S19.53,9,17.35,7.45Z"/><text class="cls-2" transform="translate(31.35 36.12)"><tspan class="cls-3">F</tspan><tspan x="17.85" y="0">O</tspan><tspan class="cls-4" x="44.78" y="0">R</tspan><tspan x="65.69" y="0">Q</tspan><tspan class="cls-5" x="92.79" y="0">U</tspan><tspan class="cls-6" x="114.21" y="0">A</tspan><tspan x="134.95" y="0">T</tspan><tspan class="cls-7" x="153.65" y="0">E</tspan><tspan x="171.84" y="0">C</tspan></text></g></g></svg>